<svg width="31" height="31" viewBox="0 0 31 31" fill="none" xmlns="http://www.w3.org/2000/svg">
<path d="M27.1249 18.0833C26.7823 18.0833 26.4538 18.2194 26.2116 18.4616C25.9693 18.7039 25.8333 19.0324 25.8333 19.375V24.5417C25.8333 24.8842 25.6972 25.2128 25.4549 25.455C25.2127 25.6972 24.8842 25.8333 24.5416 25.8333H6.45825C6.11568 25.8333 5.78714 25.6972 5.54491 25.455C5.30267 25.2128 5.16659 24.8842 5.16659 24.5417V19.375C5.16659 19.0324 5.0305 18.7039 4.78826 18.4616C4.54603 18.2194 4.21749 18.0833 3.87492 18.0833C3.53235 18.0833 3.20381 18.2194 2.96157 18.4616C2.71934 18.7039 2.58325 19.0324 2.58325 19.375V24.5417C2.58325 25.5694 2.99151 26.555 3.71821 27.2817C4.44492 28.0084 5.43054 28.4167 6.45825 28.4167H24.5416C25.5693 28.4167 26.5549 28.0084 27.2816 27.2817C28.0083 26.555 28.4166 25.5694 28.4166 24.5417V19.375C28.4166 19.0324 28.2805 18.7039 28.0383 18.4616C27.796 18.2194 27.4675 18.0833 27.1249 18.0833ZM14.5828 20.2921C14.7057 20.4097 14.8505 20.5019 15.0091 20.5633C15.1637 20.6317 15.3309 20.667 15.4999 20.667C15.669 20.667 15.8361 20.6317 15.9908 20.5633C16.1493 20.5019 16.2942 20.4097 16.417 20.2921L21.5837 15.1254C21.8269 14.8822 21.9635 14.5523 21.9635 14.2083C21.9635 13.8644 21.8269 13.5345 21.5837 13.2912C21.3404 13.048 21.0106 12.9114 20.6666 12.9114C20.3226 12.9114 19.9927 13.048 19.7495 13.2912L16.7916 16.2621V3.87499C16.7916 3.53242 16.6555 3.20388 16.4133 2.96165C16.171 2.71941 15.8425 2.58333 15.4999 2.58333C15.1573 2.58333 14.8288 2.71941 14.5866 2.96165C14.3443 3.20388 14.2083 3.53242 14.2083 3.87499V16.2621L11.2503 13.2912C11.1299 13.1708 10.9869 13.0753 10.8296 13.0101C10.6722 12.9449 10.5036 12.9114 10.3333 12.9114C10.1629 12.9114 9.99428 12.9449 9.83693 13.0101C9.67958 13.0753 9.5366 13.1708 9.41617 13.2912C9.29574 13.4117 9.2002 13.5547 9.13503 13.712C9.06985 13.8694 9.0363 14.038 9.0363 14.2083C9.0363 14.3786 9.06985 14.5473 9.13503 14.7047C9.2002 14.862 9.29574 15.005 9.41617 15.1254L14.5828 20.2921Z" fill="black"/>
</svg>
