<svg width="32" height="32" viewBox="0 0 32 32" fill="none" xmlns="http://www.w3.org/2000/svg">
<path d="M16.7079 2.02C16.0827 1.98659 15.4559 1.99527 14.8319 2.046V2.05C12.7161 2.22941 10.6688 2.88739 8.84469 3.97421C7.02056 5.06104 5.46733 6.54827 4.30239 8.32353C3.13744 10.0988 2.39125 12.1156 2.12022 14.2216C1.84918 16.3276 2.06039 18.4676 2.73788 20.48C3.8314 23.7111 6.066 26.4323 9.02266 28.1334C11.9793 29.8345 15.455 30.3986 18.7979 29.72C22.1392 29.036 25.1163 27.1569 27.1712 24.4349C29.226 21.7129 30.2176 18.3348 29.9599 14.934C29.9403 14.6693 29.8163 14.4233 29.6152 14.25C29.4142 14.0767 29.1526 13.9904 28.8879 14.01C28.6232 14.0296 28.3771 14.1536 28.2039 14.3546C28.0306 14.5557 27.9443 14.8173 27.9639 15.082C28.1902 17.9974 27.3428 20.8949 25.5812 23.2289C23.8197 25.5629 21.2656 27.1723 18.3999 27.754C15.5344 28.3408 12.5532 27.8597 10.0177 26.4014C7.48227 24.943 5.56746 22.608 4.63388 19.836C3.69511 17.0668 3.80115 14.0499 4.93204 11.3535C6.06292 8.65705 8.14062 6.46709 10.7739 5.196C13.122 4.05896 15.777 3.71913 18.3358 4.22807C20.8947 4.73702 23.2176 6.06696 24.9519 8.016H22.9999C22.7347 8.016 22.4803 8.12136 22.2928 8.30889C22.1052 8.49643 21.9999 8.75078 21.9999 9.016C21.9999 9.28122 22.1052 9.53557 22.2928 9.72311C22.4803 9.91064 22.7347 10.016 22.9999 10.016H26.9999C27.2651 10.016 27.5195 9.91064 27.707 9.72311C27.8945 9.53557 27.9999 9.28122 27.9999 9.016V5.016C28.002 4.88198 27.9772 4.74889 27.9269 4.62465C27.8767 4.50041 27.8019 4.38754 27.7071 4.29276C27.6123 4.19798 27.4995 4.12323 27.3752 4.07293C27.251 4.02264 27.1179 3.99784 26.9839 4C26.8526 4.00208 26.7229 4.03002 26.6024 4.08221C26.4819 4.1344 26.3728 4.20982 26.2814 4.30417C26.19 4.39852 26.1182 4.50994 26.0698 4.63208C26.0215 4.75422 25.9978 4.88467 25.9999 5.016V6.25C23.545 3.72129 20.2271 2.21088 16.7079 2.02Z" fill="black"/>
</svg>
